<svg xmlns="http://www.w3.org/2000/svg" xmlns:xlink="http://www.w3.org/1999/xlink" xmlns:lucid="lucid" width="1230" height="1468.7"><g transform="translate(-189 -63.3)" lucid:page-tab-id="YGcM5DNywbTK"><path d="M0 0h2656v1760H0z" fill="#fff"/><g filter="url(#a)"><path d="M362 406.5h238v170H362z" fill="#fff"/><path d="M362 406.5h238v170H362zM362 448.5h238" stroke="#7ab648" stroke-width="4" fill="none"/><use xlink:href="#b" transform="matrix(1,0,0,1,372,406.5) translate(71.25925925925925 26.333333333333336)"/><use xlink:href="#c" transform="matrix(1,0,0,1,367,451) translate(0 17.1)"/><use xlink:href="#d" transform="matrix(1,0,0,1,367,483) translate(0 17.1)"/><use xlink:href="#e" transform="matrix(1,0,0,1,367,515) translate(0 17.1)"/><use xlink:href="#f" transform="matrix(1,0,0,1,367,547) translate(0 17.1)"/></g><g filter="url(#g)"><path d="M880 161.5h200v255H880z" fill="#fff"/><path d="M880 161.5h200v255H880zM880 203.5h200" stroke="#7ab648" stroke-width="4" fill="none"/><use xlink:href="#h" transform="matrix(1,0,0,1,890,161.5) translate(29.29629629629629 26.333333333333336)"/><use xlink:href="#c" transform="matrix(1,0,0,1,885,206) translate(0 17.1)"/><use xlink:href="#i" transform="matrix(1,0,0,1,885,238) translate(0 17.1)"/><use xlink:href="#j" transform="matrix(1,0,0,1,885,270) translate(0 17.1)"/><use xlink:href="#k" transform="matrix(1,0,0,1,885,302) translate(0 16.799999999999997)"/><use xlink:href="#l" transform="matrix(1,0,0,1,885,302) translate(110.80000000000001 16.799999999999997)"/><use xlink:href="#m" transform="matrix(1,0,0,1,885,302) translate(0 38.4)"/><use xlink:href="#n" transform="matrix(1,0,0,1,885,302) translate(42.9 38.4)"/><use xlink:href="#o" transform="matrix(1,0,0,1,885,302) translate(81.85 38.4)"/><use xlink:href="#p" transform="matrix(1,0,0,1,885,302) translate(106.85 38.4)"/><g><use xlink:href="#q" transform="matrix(1,0,0,1,885,355) translate(0 17.1)"/></g><g><use xlink:href="#r" transform="matrix(1,0,0,1,885,387) translate(0 17.1)"/></g></g><path d="M860.35 251.5H740v213.08H622" stroke="#7ab648" stroke-width="4" fill="none"/><path d="M877.1 261.5l-20-10 20-10M877.1 251.5h-20" stroke="#7ab648" stroke-width="4" fill="#fff"/><path fill="#fff"/><path d="M624 474.58h-4v-20h4z" fill="#7ab648"/><path fill="#fff"/><path d="M622 466.58h-20v-4h20z" fill="#7ab648"/><g filter="url(#s)"><path d="M322 660h200v202H322z" fill="#fff"/><path d="M322 660h200v202H322zM322 702h200" stroke="#7ab648" stroke-width="4" fill="none"/><use xlink:href="#t" transform="matrix(1,0,0,1,332,660) translate(46.29629629629629 26.333333333333336)"/><use xlink:href="#c" transform="matrix(1,0,0,1,327,704.5) translate(0 17.1)"/><use xlink:href="#i" transform="matrix(1,0,0,1,327,736.5) translate(0 17.1)"/><use xlink:href="#u" transform="matrix(1,0,0,1,327,768.5) translate(0 17.1)"/><use xlink:href="#v" transform="matrix(1,0,0,1,327,800.5) translate(0 17.1)"/><use xlink:href="#w" transform="matrix(1,0,0,1,327,832.5) translate(0 17.1)"/></g><path d="M300 750h-20V464.58h60" stroke="#7ab648" stroke-width="4" fill="none"/><path d="M319.1 760l-20-10 20-10M319.1 750h-20M299.1 740v20" stroke="#7ab648" stroke-width="4" fill="#fff"/><path fill="#fff"/><path d="M342 474.58h-4v-20h4z" fill="#7ab648"/><path fill="#fff"/><path d="M360 466.58h-20v-4h20z" fill="#7ab648"/><path d="M562 782h28V618.5H481v-20" stroke="#7ab648" stroke-width="4" fill="none"/><path d="M524.9 772l20 10-20 10M524.9 782h20M564.9 782c0 5.52-4.48 10-10 10-5.53 0-10-4.48-10-10s4.47-10 10-10c5.52 0 10 4.48 10 10" stroke="#7ab648" stroke-width="4" fill="#fff"/><path fill="#fff"/><path d="M491 600.5h-20v-4h20z" fill="#7ab648"/><path fill="#fff"/><path d="M483 598.5h-4v-20h4z" fill="#7ab648"/><g filter="url(#x)"><path d="M362 920h200v138H362z" fill="#fff"/><path d="M362 920h200v138H362zM362 962h200" stroke="#7ab648" stroke-width="4" fill="none"/><use xlink:href="#y" transform="matrix(1,0,0,1,372,920) translate(1.8518518518518619 26.333333333333336)"/><use xlink:href="#c" transform="matrix(1,0,0,1,367,964.5) translate(0 17.1)"/><use xlink:href="#z" transform="matrix(1,0,0,1,367,996.5) translate(0 17.1)"/><use xlink:href="#A" transform="matrix(1,0,0,1,367,1028.5) translate(0 17.1)"/></g><path d="M300 815.06h-20V978h42" stroke="#7ab648" stroke-width="4" fill="none"/><path fill="#fff"/><path d="M302 825.06h-4v-20h4z" fill="#7ab648"/><path fill="#fff"/><path d="M320 817.06h-20v-4h20z" fill="#7ab648"/><path fill="#fff"/><path d="M352 988h-4v-20h4z" fill="#7ab648"/><path fill="#fff"/><path d="M360 980h-20v-4h20z" fill="#7ab648"/><path d="M340 978l-.5 3.16-1.43 2.75-2.16 2.17-2.74 1.42-3.16.5-3.16-.5-2.75-1.43-2.17-2.16-1.42-2.74-.5-3.16.5-3.16 1.43-2.75 2.16-2.17 2.74-1.42 3.16-.5 3.16.5 2.75 1.43 2.17 2.16 1.42 2.74.5 3.16z" fill="#fff"/><path d="M333.8 966.6l3.3 1.7 2.6 2.6 1.7 3.3.57 3.48-1.97.32 1.97.32-.56 3.48-1.7 3.3-2.6 2.6-3.3 1.7-3.8.63-3.8-.62-3.3-1.7-2.6-2.6-1.7-3.3-.63-3.8.62-3.8 1.7-3.3 2.6-2.6 3.3-1.7 3.8-.63zm-6.33 3.83l-2.18 1.13-1.74 1.73-1.13 2.17-.4 2.53.4 2.53 1.13 2.18 1.73 1.74 2.17 1.13 2.53.4 2.53-.4 2.18-1.13 1.74-1.73 1.13-2.17.4-2.53-.4-2.53-1.13-2.18-1.73-1.74-2.17-1.13-2.53-.4z" fill="#7ab648"/><g filter="url(#B)"><path d="M680 952h200v106H680z" fill="#fff"/><path d="M680 952h200v106H680zM680 994h200" stroke="#7ab648" stroke-opacity=".36" stroke-width="4" fill="none"/><use xlink:href="#C" transform="matrix(1,0,0,1,690,952) translate(13.814814814814824 26.333333333333336)"/><use xlink:href="#D" transform="matrix(1,0,0,1,685,996.5) translate(0 17.1)"/><use xlink:href="#E" transform="matrix(1,0,0,1,685,1028.5) translate(0 17.1)"/></g><path d="M544 815.06h57V1010h39" stroke="#7ab648" stroke-opacity=".36" stroke-width="4" fill="none"/><path fill="#fff"/><path d="M546 825.06h-4v-20h4z" fill="#7ab648" fill-opacity=".36"/><path fill="#fff"/><path d="M544 817.06h-20v-4h20z" fill="#7ab648" fill-opacity=".36"/><path fill="#fff"/><path d="M670 1020h-4v-20h4z" fill="#7ab648" fill-opacity=".36"/><path fill="#fff"/><path d="M678 1012h-20v-4h20z" fill="#7ab648" fill-opacity=".36"/><path d="M658 1010l-.5 3.16-1.43 2.75-2.16 2.17-2.74 1.42-3.16.5-3.16-.5-2.75-1.43-2.17-2.16-1.42-2.74-.5-3.16.5-3.16 1.43-2.75 2.16-2.17 2.74-1.42 3.16-.5 3.16.5 2.75 1.43 2.17 2.16 1.42 2.74.5 3.16z" fill="#fff"/><path d="M651.8 998.6l3.3 1.7 2.6 2.6 1.7 3.3.57 3.48-1.97.32 1.97.32-.56 3.48-1.7 3.3-2.6 2.6-3.3 1.7-3.8.63-3.8-.62-3.3-1.7-2.6-2.6-1.7-3.3-.63-3.8.62-3.8 1.7-3.3 2.6-2.6 3.3-1.7 3.8-.63zm-6.33 3.83l-2.18 1.13-1.74 1.73-1.13 2.17-.4 2.53.4 2.53 1.13 2.18 1.73 1.74 2.17 1.13 2.53.4 2.53-.4 2.18-1.13 1.74-1.73 1.13-2.17.4-2.53-.4-2.53-1.13-2.18-1.73-1.74-2.17-1.13-2.53-.4z" fill="#7ab648" fill-opacity=".36"/><g filter="url(#x)"><path d="M1196 576.5h200v138h-200z" fill="#fff"/><path d="M1196 576.5h200v138h-200zM1196 618.5h200" stroke="#3d4752" stroke-width="4" fill="none"/><use xlink:href="#F" transform="matrix(1,0,0,1,1206,576.5) translate(57.44444444444444 26.333333333333336)"/><use xlink:href="#c" transform="matrix(1,0,0,1,1201,621) translate(0 17.1)"/><use xlink:href="#d" transform="matrix(1,0,0,1,1201,653) translate(0 17.1)"/><use xlink:href="#G" transform="matrix(1,0,0,1,1201,685) translate(0 17.1)"/></g><g filter="url(#x)"><path d="M778 576.5h200v138H778z" fill="#fff"/><path d="M778 576.5h200v138H778zM778 618.5h200" stroke="#3d4752" stroke-width="4" fill="none"/><use xlink:href="#H" transform="matrix(1,0,0,1,788,576.5) translate(64.81481481481481 26.333333333333336)"/><use xlink:href="#c" transform="matrix(1,0,0,1,783,621) translate(0 17.1)"/><use xlink:href="#d" transform="matrix(1,0,0,1,783,653) translate(0 17.1)"/><use xlink:href="#I" transform="matrix(1,0,0,1,783,685) translate(0 17.1)"/></g><path d="M619.65 560.28H689v74.22h67" fill="none"/><path d="M619.65 560.28h7.52m15.04 0h15.05m15.04 0h15.03m1.67 13.37v15.05m0 15.04v15.04m0 15.04v.68h14.36m15.04 0h15.04m15.04 0H756" stroke="#494949" stroke-width="4" fill="none"/><path d="M602.9 550.28l20 10-20 10M602.9 560.28h20" stroke="#494949" stroke-width="4" fill="#fff"/><path fill="#fff"/><path d="M758 644.5h-4v-20h4z" fill="#494949"/><path fill="#fff"/><path d="M776 636.5h-20v-4h20z" fill="#494949"/><g filter="url(#x)"><path d="M1198 161.5h200v138h-200z" fill="#fff"/><path d="M1198 161.5h200v138h-200zM1198 203.5h200" stroke="#7ab648" stroke-opacity=".36" stroke-width="4" fill="none"/><use xlink:href="#J" transform="matrix(1,0,0,1,1208,161.5) translate(47.1111111111111 26.333333333333336)"/><use xlink:href="#D" transform="matrix(1,0,0,1,1203,206) translate(0 17.1)"/><use xlink:href="#K" transform="matrix(1,0,0,1,1203,238) translate(0 17.1)"/><use xlink:href="#L" transform="matrix(1,0,0,1,1203,270) translate(0 17.1)"/></g><g filter="url(#x)"><path d="M1198 360h200v138h-200z" fill="#fff"/><path d="M1198 360h200v138h-200zM1198 402h200" stroke="#7ab648" stroke-opacity=".36" stroke-width="4" fill="none"/><use xlink:href="#M" transform="matrix(1,0,0,1,1208,360) translate(51.51851851851851 26.333333333333336)"/><use xlink:href="#D" transform="matrix(1,0,0,1,1203,404.5) translate(0 17.1)"/><use xlink:href="#N" transform="matrix(1,0,0,1,1203,436.5) translate(0 17.1)"/><use xlink:href="#O" transform="matrix(1,0,0,1,1203,468.5) translate(0 17.1)"/></g><path d="M1000 699.56h87v-65.28h87" stroke="#494949" stroke-width="4" fill="none"/><path d="M980.9 689.56l20 10-20 10M980.9 699.56h20M1000.9 709.56v-20" stroke="#494949" stroke-width="4" fill="#fff"/><path fill="#fff"/><path d="M1176 644.28h-4v-20h4z" fill="#494949"/><path fill="#fff"/><path d="M1194 636.28h-20v-4h20z" fill="#494949"/><path d="M1102 368.5h37v-149h39.35" stroke="#7ab648" stroke-opacity=".36" stroke-width="4" fill="none"/><path fill="#fff"/><path d="M1104 378.5h-4v-20h4z" fill="#7ab648" fill-opacity=".36"/><path fill="#fff"/><path d="M1102 370.5h-20v-4h20z" fill="#7ab648" fill-opacity=".36"/><path d="M1195.1 229.5l-20-10 20-10M1195.1 219.5h-20" stroke="#7ab648" stroke-opacity=".36" stroke-width="4" fill="#fff"/><path d="M858 368.5h-20v88h318V418h22.35" stroke="#7ab648" stroke-opacity=".36" stroke-width="4" fill="none"/><path fill="#fff"/><path d="M860 378.5h-4v-20h4z" fill="#7ab648" fill-opacity=".36"/><path fill="#fff"/><path d="M878 370.5h-20v-4h20z" fill="#7ab648" fill-opacity=".36"/><path d="M1195.1 428l-20-10 20-10M1195.1 418h-20" stroke="#7ab648" stroke-opacity=".36" stroke-width="4" fill="#fff"/><g filter="url(#P)"><path d="M1098 978.5h200v234h-200z" fill="#fff"/><path d="M1098 978.5h200v234h-200zM1098 1020.5h200" stroke="#ff8f80" stroke-width="4" fill="none"/><use xlink:href="#Q" transform="matrix(1,0,0,1,1108,978.5) translate(52.29629629629629 26.333333333333336)"/><use xlink:href="#c" transform="matrix(1,0,0,1,1103,1023) translate(0 17.1)"/><use xlink:href="#f" transform="matrix(1,0,0,1,1103,1055) translate(0 17.1)"/><use xlink:href="#R" transform="matrix(1,0,0,1,1103,1087) translate(0 17.1)"/><use xlink:href="#S" transform="matrix(1,0,0,1,1103,1119) translate(0 17.1)"/><use xlink:href="#G" transform="matrix(1,0,0,1,1103,1151) translate(0 17.1)"/><use xlink:href="#T" transform="matrix(1,0,0,1,1103,1183) translate(0 17.1)"/></g><g filter="url(#U)"><path d="M1098 1280h200v231h-200z" fill="#fff"/><path d="M1098 1280h200v231h-200zM1098 1322h200" stroke="#ff8f80" stroke-width="4" fill="none"/><use xlink:href="#V" transform="matrix(1,0,0,1,1108,1280) translate(7.851851851851848 26.333333333333336)"/><use xlink:href="#c" transform="matrix(1,0,0,1,1103,1324.5) translate(0 17.1)"/><use xlink:href="#W" transform="matrix(1,0,0,1,1103,1356.5) translate(0 17.1)"/><use xlink:href="#X" transform="matrix(1,0,0,1,1103,1388.5) translate(0 17.1)"/><use xlink:href="#Y" transform="matrix(1,0,0,1,1103,1420.5) translate(0 17.1)"/><use xlink:href="#Z" transform="matrix(1,0,0,1,1103,1452.5) translate(0 15.2)"/><use xlink:href="#aa" transform="matrix(1,0,0,1,1103,1481.5) translate(0 17.1)"/></g><path d="M1320 1036.5h50V1370h-32" stroke="#ff8f80" stroke-width="4" fill="none"/><path fill="#fff"/><path d="M1322 1046.5h-4v-20h4z" fill="#ff8f80"/><path fill="#fff"/><path d="M1320 1038.5h-20v-4h20z" fill="#ff8f80"/><path d="M1300.9 1360l20 10-20 10M1300.9 1370h20M1340.9 1370c0 5.52-4.48 10-10 10-5.53 0-10-4.48-10-10s4.47-10 10-10c5.52 0 10 4.48 10 10" stroke="#ff8f80" stroke-width="4" fill="#fff"/><path d="M1058 1068.5h-20V634.28h-38" stroke="#494949" stroke-width="4" fill="none"/><path d="M1095.1 1078.5l-20-10 20-10M1095.1 1068.5h-20M1075.1 1068.5c0 5.52-4.47 10-10 10-5.52 0-10-4.48-10-10s4.48-10 10-10c5.53 0 10 4.48 10 10" stroke="#494949" stroke-width="4" fill="#fff"/><path fill="#fff"/><path d="M992 644.28h-4v-20h4z" fill="#494949"/><path fill="#fff"/><path d="M1000 636.28h-20v-4h20z" fill="#494949"/><path fill="#fff"/><path d="M1002 644.28h-4v-20h4z" fill="#494949"/><g filter="url(#ab)"><path d="M1038 901.3h240v77.2h-240z" stroke="#000" stroke-opacity="0" stroke-width="4" fill="#fff" fill-opacity="0"/><use xlink:href="#ac" transform="matrix(1,0,0,1,1043,906.3) translate(67.62962962962963 39.333333333333336)"/></g><g filter="url(#ad)"><path d="M362 236h238v106H362z" fill="#fff"/><path d="M362 236h238v106H362zM362 278h238" stroke="#7ab648" stroke-width="4" fill="none"/><use xlink:href="#ae" transform="matrix(1,0,0,1,372,236) translate(2.4444444444444287 26.333333333333336)"/><use xlink:href="#af" transform="matrix(1,0,0,1,367,280.5) translate(0 17.1)"/><use xlink:href="#ag" transform="matrix(1,0,0,1,367,312.5) translate(0 17.1)"/></g><path d="M342.35 529.12H320V294.08h20" stroke="#7ab648" stroke-width="4" fill="none"/><path d="M359.1 539.12l-20-10 20-10M359.1 529.12h-20" stroke="#7ab648" stroke-width="4" fill="#fff"/><path fill="#fff"/><path d="M352 304.08h-4v-20h4z" fill="#7ab648"/><path fill="#fff"/><path d="M360 296.08h-20v-4h20z" fill="#7ab648"/><path fill="#fff"/><path d="M342 304.08h-4v-20h4z" fill="#7ab648"/><path d="M1058 1464.5H210V196h450v98.08h-38" stroke="#ff8f80" stroke-width="4" fill="none"/><path d="M1095.1 1474.5l-20-10 20-10M1095.1 1464.5h-20M1075.1 1464.5c0 5.52-4.47 10-10 10-5.52 0-10-4.48-10-10s4.48-10 10-10c5.53 0 10 4.48 10 10" stroke="#ff8f80" stroke-width="4" fill="#fff"/><path fill="#fff"/><path d="M614 304.08h-4v-20h4z" fill="#ff8f80"/><path fill="#fff"/><path d="M622 296.08h-20v-4h20z" fill="#ff8f80"/><path fill="#fff"/><path d="M624 304.08h-4v-20h4z" fill="#ff8f80"/><g filter="url(#ab)"><path d="M720 499.3h240v77.2H720z" stroke="#000" stroke-opacity="0" stroke-width="4" fill="#fff" fill-opacity="0"/><use xlink:href="#ah" transform="matrix(1,0,0,1,725,504.29999999999995) translate(62.518518518518505 39.333333333333336)"/><use xlink:href="#ai" transform="matrix(1,0,0,1,725,504.29999999999995) translate(112.81481481481481 39.333333333333336)"/></g><g filter="url(#ab)"><path d="M840 84.3h240v77.2H840z" stroke="#000" stroke-opacity="0" stroke-width="4" fill="#fff" fill-opacity="0"/><use xlink:href="#aj" transform="matrix(1,0,0,1,845,89.3) translate(53.59259259259258 39.333333333333336)"/><use xlink:href="#ak" transform="matrix(1,0,0,1,845,89.3) translate(121.74074074074073 39.333333333333336)"/></g><defs><path fill="#3d4752" d="M115-194c53 0 69 39 70 98 0 66-23 100-70 100C84 3 66-7 56-30L54 0H23l1-261h32v101c10-23 28-34 59-34zm-8 174c40 0 45-34 45-75 0-40-5-75-45-74-42 0-51 32-51 76 0 43 10 73 51 73" id="al"/><path fill="#3d4752" d="M24 0v-261h32V0H24" id="am"/><path fill="#3d4752" d="M100-194c62-1 85 37 85 99 1 63-27 99-86 99S16-35 15-95c0-66 28-99 85-99zM99-20c44 1 53-31 53-75 0-43-8-75-51-75s-53 32-53 75 10 74 51 75" id="an"/><path fill="#3d4752" d="M96-169c-40 0-48 33-48 73s9 75 48 75c24 0 41-14 43-38l32 2c-6 37-31 61-74 61-59 0-76-41-82-99-10-93 101-131 147-64 4 7 5 14 7 22l-32 3c-4-21-16-35-41-35" id="ao"/><path fill="#3d4752" d="M143 0L79-87 56-68V0H24v-261h32v163l83-92h37l-77 82L181 0h-38" id="ap"/><path fill="#3d4752" d="M135-143c-3-34-86-38-87 0 15 53 115 12 119 90S17 21 10-45l28-5c4 36 97 45 98 0-10-56-113-15-118-90-4-57 82-63 122-42 12 7 21 19 24 35" id="aq"/><g id="b"><use transform="matrix(0.07407407407407408,0,0,0.07407407407407408,0,0)" xlink:href="#al"/><use transform="matrix(0.07407407407407408,0,0,0.07407407407407408,14.814814814814817,0)" xlink:href="#am"/><use transform="matrix(0.07407407407407408,0,0,0.07407407407407408,20.666666666666668,0)" xlink:href="#an"/><use transform="matrix(0.07407407407407408,0,0,0.07407407407407408,35.48148148148149,0)" xlink:href="#ao"/><use transform="matrix(0.07407407407407408,0,0,0.07407407407407408,48.814814814814824,0)" xlink:href="#ap"/><use transform="matrix(0.07407407407407408,0,0,0.07407407407407408,62.14814814814816,0)" xlink:href="#aq"/></g><path d="M24-231v-30h32v30H24zM24 0v-190h32V0H24" id="ar"/><path d="M85-194c31 0 48 13 60 33l-1-100h32l1 261h-30c-2-10 0-23-3-31C134-8 116 4 85 4 32 4 16-35 15-94c0-66 23-100 70-100zm9 24c-40 0-46 34-46 75 0 40 6 74 45 74 42 0 51-32 51-76 0-42-9-74-50-73" id="as"/><g id="c"><use transform="matrix(0.05,0,0,0.05,0,0)" xlink:href="#ar"/><use transform="matrix(0.05,0,0,0.05,3.95,0)" xlink:href="#as"/></g><path d="M117-194c89-4 53 116 60 194h-32v-121c0-31-8-49-39-48C34-167 62-67 57 0H25l-1-190h30c1 10-1 24 2 32 11-22 29-35 61-36" id="at"/><path d="M141-36C126-15 110 5 73 4 37 3 15-17 15-53c-1-64 63-63 125-63 3-35-9-54-41-54-24 1-41 7-42 31l-33-3c5-37 33-52 76-52 45 0 72 20 72 64v82c-1 20 7 32 28 27v20c-31 9-61-2-59-35zM48-53c0 20 12 33 32 33 41-3 63-29 60-74-43 2-92-5-92 41" id="au"/><path d="M210-169c-67 3-38 105-44 169h-31v-121c0-29-5-50-35-48C34-165 62-65 56 0H25l-1-190h30c1 10-1 24 2 32 10-44 99-50 107 0 11-21 27-35 58-36 85-2 47 119 55 194h-31v-121c0-29-5-49-35-48" id="av"/><path d="M100-194c63 0 86 42 84 106H49c0 40 14 67 53 68 26 1 43-12 49-29l28 8c-11 28-37 45-77 45C44 4 14-33 15-96c1-61 26-98 85-98zm52 81c6-60-76-77-97-28-3 7-6 17-6 28h103" id="aw"/><g id="d"><use transform="matrix(0.05,0,0,0.05,0,0)" xlink:href="#at"/><use transform="matrix(0.05,0,0,0.05,10,0)" xlink:href="#au"/><use transform="matrix(0.05,0,0,0.05,20,0)" xlink:href="#av"/><use transform="matrix(0.05,0,0,0.05,34.95,0)" xlink:href="#aw"/></g><path d="M96-169c-40 0-48 33-48 73s9 75 48 75c24 0 41-14 43-38l32 2c-6 37-31 61-74 61-59 0-76-41-82-99-10-93 101-131 147-64 4 7 5 14 7 22l-32 3c-4-21-16-35-41-35" id="ax"/><path d="M24 0v-261h32V0H24" id="ay"/><path d="M59-47c-2 24 18 29 38 22v24C64 9 27 4 27-40v-127H5v-23h24l9-43h21v43h35v23H59v120" id="az"/><path d="M-5 72V49h209v23H-5" id="aA"/><path d="M115-194c55 1 70 41 70 98S169 2 115 4C84 4 66-9 55-30l1 105H24l-1-265h31l2 30c10-21 28-34 59-34zm-8 174c40 0 45-34 45-75s-6-73-45-74c-42 0-51 32-51 76 0 43 10 73 51 73" id="aB"/><path d="M84 4C-5 8 30-112 23-190h32v120c0 31 7 50 39 49 72-2 45-101 50-169h31l1 190h-30c-1-10 1-25-2-33-11 22-28 36-60 37" id="aC"/><path d="M179-190L93 31C79 59 56 82 12 73V49c39 6 53-20 64-50L1-190h34L92-34l54-156h33" id="aD"/><g id="e"><use transform="matrix(0.05,0,0,0.05,0,0)" xlink:href="#ax"/><use transform="matrix(0.05,0,0,0.05,9,0)" xlink:href="#ay"/><use transform="matrix(0.05,0,0,0.05,12.949999999999998,0)" xlink:href="#ar"/><use transform="matrix(0.05,0,0,0.05,16.9,0)" xlink:href="#aw"/><use transform="matrix(0.05,0,0,0.05,26.899999999999995,0)" xlink:href="#at"/><use transform="matrix(0.05,0,0,0.05,36.9,0)" xlink:href="#az"/><use transform="matrix(0.05,0,0,0.05,41.9,0)" xlink:href="#aA"/><use transform="matrix(0.05,0,0,0.05,51.900000000000006,0)" xlink:href="#ar"/><use transform="matrix(0.05,0,0,0.05,55.85,0)" xlink:href="#at"/><use transform="matrix(0.05,0,0,0.05,65.85,0)" xlink:href="#aB"/><use transform="matrix(0.05,0,0,0.05,75.85,0)" xlink:href="#aC"/><use transform="matrix(0.05,0,0,0.05,85.85,0)" xlink:href="#az"/><use transform="matrix(0.05,0,0,0.05,90.85,0)" xlink:href="#aA"/><use transform="matrix(0.05,0,0,0.05,100.85,0)" xlink:href="#az"/><use transform="matrix(0.05,0,0,0.05,105.84999999999998,0)" xlink:href="#aD"/><use transform="matrix(0.05,0,0,0.05,114.84999999999998,0)" xlink:href="#aB"/><use transform="matrix(0.05,0,0,0.05,124.84999999999998,0)" xlink:href="#aw"/><use transform="matrix(0.05,0,0,0.05,134.85,0)" xlink:href="#aA"/><use transform="matrix(0.05,0,0,0.05,144.85,0)" xlink:href="#ar"/><use transform="matrix(0.05,0,0,0.05,148.79999999999998,0)" xlink:href="#as"/></g><path d="M115-194c53 0 69 39 70 98 0 66-23 100-70 100C84 3 66-7 56-30L54 0H23l1-261h32v101c10-23 28-34 59-34zm-8 174c40 0 45-34 45-75 0-40-5-75-45-74-42 0-51 32-51 76 0 43 10 73 51 73" id="aE"/><path d="M100-194c62-1 85 37 85 99 1 63-27 99-86 99S16-35 15-95c0-66 28-99 85-99zM99-20c44 1 53-31 53-75 0-43-8-75-51-75s-53 32-53 75 10 74 51 75" id="aF"/><g id="f"><use transform="matrix(0.05,0,0,0.05,0,0)" xlink:href="#aE"/><use transform="matrix(0.05,0,0,0.05,10,0)" xlink:href="#aF"/><use transform="matrix(0.05,0,0,0.05,20,0)" xlink:href="#az"/><use transform="matrix(0.05,0,0,0.05,25,0)" xlink:href="#aA"/><use transform="matrix(0.05,0,0,0.05,35,0)" xlink:href="#ar"/><use transform="matrix(0.05,0,0,0.05,38.95,0)" xlink:href="#as"/></g><filter id="a" filterUnits="objectBoundingBox" x="-.04" y="-.02" width="1.08" height="1.12"><feOffset result="offOut" in="SourceAlpha" dy="6"/><feGaussianBlur result="blurOut" in="offOut" stdDeviation="5"/><feColorMatrix result="colorOut" in="blurOut" values="0 0 0 0 0 0 0 0 0 0 0 0 0 0 0 0 0 0 0.16862745098039217 0"/><feBlend in="SourceGraphic" in2="colorOut"/></filter><path fill="#3d4752" d="M210-169c-67 3-38 105-44 169h-31v-121c0-29-5-50-35-48C34-165 62-65 56 0H25l-1-190h30c1 10-1 24 2 32 10-44 99-50 107 0 11-21 27-35 58-36 85-2 47 119 55 194h-31v-121c0-29-5-49-35-48" id="aG"/><path fill="#3d4752" d="M100-194c63 0 86 42 84 106H49c0 40 14 67 53 68 26 1 43-12 49-29l28 8c-11 28-37 45-77 45C44 4 14-33 15-96c1-61 26-98 85-98zm52 81c6-60-76-77-97-28-3 7-6 17-6 28h103" id="aH"/><path fill="#3d4752" d="M141-36C126-15 110 5 73 4 37 3 15-17 15-53c-1-64 63-63 125-63 3-35-9-54-41-54-24 1-41 7-42 31l-33-3c5-37 33-52 76-52 45 0 72 20 72 64v82c-1 20 7 32 28 27v20c-31 9-61-2-59-35zM48-53c0 20 12 33 32 33 41-3 63-29 60-74-43 2-92-5-92 41" id="aI"/><path fill="#3d4752" d="M177-190C167-65 218 103 67 71c-23-6-38-20-44-43l32-5c15 47 100 32 89-28v-30C133-14 115 1 83 1 29 1 15-40 15-95c0-56 16-97 71-98 29-1 48 16 59 35 1-10 0-23 2-32h30zM94-22c36 0 50-32 50-73 0-42-14-75-50-75-39 0-46 34-46 75s6 73 46 73" id="aJ"/><g id="h"><use transform="matrix(0.07407407407407408,0,0,0.07407407407407408,0,0)" xlink:href="#aG"/><use transform="matrix(0.07407407407407408,0,0,0.07407407407407408,22.148148148148152,0)" xlink:href="#aH"/><use transform="matrix(0.07407407407407408,0,0,0.07407407407407408,36.96296296296297,0)" xlink:href="#aq"/><use transform="matrix(0.07407407407407408,0,0,0.07407407407407408,50.296296296296305,0)" xlink:href="#aq"/><use transform="matrix(0.07407407407407408,0,0,0.07407407407407408,63.62962962962964,0)" xlink:href="#aI"/><use transform="matrix(0.07407407407407408,0,0,0.07407407407407408,78.44444444444446,0)" xlink:href="#aJ"/><use transform="matrix(0.07407407407407408,0,0,0.07407407407407408,93.25925925925927,0)" xlink:href="#aH"/><use transform="matrix(0.07407407407407408,0,0,0.07407407407407408,108.07407407407408,0)" xlink:href="#aq"/></g><path d="M143 0L79-87 56-68V0H24v-261h32v163l83-92h37l-77 82L181 0h-38" id="aK"/><g id="i"><use transform="matrix(0.05,0,0,0.05,0,0)" xlink:href="#aE"/><use transform="matrix(0.05,0,0,0.05,10,0)" xlink:href="#ay"/><use transform="matrix(0.05,0,0,0.05,13.949999999999998,0)" xlink:href="#aF"/><use transform="matrix(0.05,0,0,0.05,23.95,0)" xlink:href="#ax"/><use transform="matrix(0.05,0,0,0.05,32.95,0)" xlink:href="#aK"/><use transform="matrix(0.05,0,0,0.05,41.95,0)" xlink:href="#aA"/><use transform="matrix(0.05,0,0,0.05,51.95,0)" xlink:href="#ar"/><use transform="matrix(0.05,0,0,0.05,55.900000000000006,0)" xlink:href="#as"/></g><g id="j"><use transform="matrix(0.05,0,0,0.05,0,0)" xlink:href="#as"/><use transform="matrix(0.05,0,0,0.05,10,0)" xlink:href="#aw"/><use transform="matrix(0.05,0,0,0.05,20,0)" xlink:href="#ay"/><use transform="matrix(0.05,0,0,0.05,23.95,0)" xlink:href="#au"/><use transform="matrix(0.05,0,0,0.05,33.95,0)" xlink:href="#aD"/></g><path d="M135-143c-3-34-86-38-87 0 15 53 115 12 119 90S17 21 10-45l28-5c4 36 97 45 98 0-10-56-113-15-118-90-4-57 82-63 122-42 12 7 21 19 24 35" id="aL"/><path d="M114-163C36-179 61-72 57 0H25l-1-190h30c1 12-1 29 2 39 6-27 23-49 58-41v29" id="aM"/><g id="k"><use transform="matrix(0.05,0,0,0.05,0,0)" xlink:href="#aL"/><use transform="matrix(0.05,0,0,0.05,9,0)" xlink:href="#aF"/><use transform="matrix(0.05,0,0,0.05,19,0)" xlink:href="#aM"/><use transform="matrix(0.05,0,0,0.05,24.95,0)" xlink:href="#az"/><use transform="matrix(0.05,0,0,0.05,29.950000000000003,0)" xlink:href="#aA"/><use transform="matrix(0.05,0,0,0.05,39.95,0)" xlink:href="#aF"/><use transform="matrix(0.05,0,0,0.05,49.95,0)" xlink:href="#aM"/><use transform="matrix(0.05,0,0,0.05,55.900000000000006,0)" xlink:href="#as"/><use transform="matrix(0.05,0,0,0.05,65.9,0)" xlink:href="#aw"/><use transform="matrix(0.05,0,0,0.05,75.9,0)" xlink:href="#aM"/><use transform="matrix(0.05,0,0,0.05,81.85000000000001,0)" xlink:href="#aA"/><use transform="matrix(0.05,0,0,0.05,91.85000000000001,0)" xlink:href="#ar"/><use transform="matrix(0.05,0,0,0.05,95.80000000000001,0)" xlink:href="#as"/></g><path d="M87 75C49 33 22-17 22-94c0-76 28-126 65-167h31c-38 41-64 92-64 168S80 34 118 75H87" id="aN"/><path d="M177-190C167-65 218 103 67 71c-23-6-38-20-44-43l32-5c15 47 100 32 89-28v-30C133-14 115 1 83 1 29 1 15-40 15-95c0-56 16-97 71-98 29-1 48 16 59 35 1-10 0-23 2-32h30zM94-22c36 0 50-32 50-73 0-42-14-75-50-75-39 0-46 34-46 75s6 73 46 73" id="aO"/><g id="l"><use transform="matrix(0.05,0,0,0.05,0,0)" xlink:href="#aN"/><use transform="matrix(0.05,0,0,0.05,5.95,0)" xlink:href="#aL"/><use transform="matrix(0.05,0,0,0.05,14.949999999999998,0)" xlink:href="#aF"/><use transform="matrix(0.05,0,0,0.05,24.95,0)" xlink:href="#aM"/><use transform="matrix(0.05,0,0,0.05,30.899999999999995,0)" xlink:href="#az"/><use transform="matrix(0.05,0,0,0.05,35.9,0)" xlink:href="#ar"/><use transform="matrix(0.05,0,0,0.05,39.85,0)" xlink:href="#at"/><use transform="matrix(0.05,0,0,0.05,49.85,0)" xlink:href="#aO"/></g><path d="M101-234c-31-9-42 10-38 44h38v23H63V0H32v-167H5v-23h27c-7-52 17-82 69-68v24" id="aP"/><path d="M68-38c1 34 0 65-14 84H32c9-13 17-26 17-46H33v-38h35" id="aQ"/><g id="m"><use transform="matrix(0.05,0,0,0.05,0,0)" xlink:href="#aP"/><use transform="matrix(0.05,0,0,0.05,5,0)" xlink:href="#ar"/><use transform="matrix(0.05,0,0,0.05,8.95,0)" xlink:href="#aw"/><use transform="matrix(0.05,0,0,0.05,18.95,0)" xlink:href="#ay"/><use transform="matrix(0.05,0,0,0.05,22.9,0)" xlink:href="#as"/><use transform="matrix(0.05,0,0,0.05,32.9,0)" xlink:href="#aQ"/></g><g id="n"><use transform="matrix(0.05,0,0,0.05,0,0)" xlink:href="#av"/><use transform="matrix(0.05,0,0,0.05,14.950000000000001,0)" xlink:href="#au"/><use transform="matrix(0.05,0,0,0.05,24.950000000000003,0)" xlink:href="#aD"/></g><g id="o"><use transform="matrix(0.05,0,0,0.05,0,0)" xlink:href="#aE"/><use transform="matrix(0.05,0,0,0.05,10,0)" xlink:href="#aw"/></g><path d="M33-261c38 41 65 92 65 168S71 34 33 75H2C39 34 66-17 66-93S39-220 2-261h31" id="aR"/><g id="p"><use transform="matrix(0.05,0,0,0.05,0,0)" xlink:href="#aL"/><use transform="matrix(0.05,0,0,0.05,9,0)" xlink:href="#au"/><use transform="matrix(0.05,0,0,0.05,19,0)" xlink:href="#av"/><use transform="matrix(0.05,0,0,0.05,33.95,0)" xlink:href="#aw"/><use transform="matrix(0.05,0,0,0.05,43.95,0)" xlink:href="#aR"/></g><path fill="#666" fill-opacity=".6" d="M141-36C126-15 110 5 73 4 37 3 15-17 15-53c-1-64 63-63 125-63 3-35-9-54-41-54-24 1-41 7-42 31l-33-3c5-37 33-52 76-52 45 0 72 20 72 64v82c-1 20 7 32 28 27v20c-31 9-61-2-59-35zM48-53c0 20 12 33 32 33 41-3 63-29 60-74-43 2-92-5-92 41" id="aS"/><path fill="#666" fill-opacity=".6" d="M59-47c-2 24 18 29 38 22v24C64 9 27 4 27-40v-127H5v-23h24l9-43h21v43h35v23H59v120" id="aT"/><path fill="#666" fill-opacity=".6" d="M96-169c-40 0-48 33-48 73s9 75 48 75c24 0 41-14 43-38l32 2c-6 37-31 61-74 61-59 0-76-41-82-99-10-93 101-131 147-64 4 7 5 14 7 22l-32 3c-4-21-16-35-41-35" id="aU"/><path fill="#666" fill-opacity=".6" d="M106-169C34-169 62-67 57 0H25v-261h32l-1 103c12-21 28-36 61-36 89 0 53 116 60 194h-32v-121c2-32-8-49-39-48" id="aV"/><path fill="#666" fill-opacity=".6" d="M115-194c53 0 69 39 70 98 0 66-23 100-70 100C84 3 66-7 56-30L54 0H23l1-261h32v101c10-23 28-34 59-34zm-8 174c40 0 45-34 45-75 0-40-5-75-45-74-42 0-51 32-51 76 0 43 10 73 51 73" id="aW"/><path fill="#666" fill-opacity=".6" d="M24 0v-261h32V0H24" id="aX"/><path fill="#666" fill-opacity=".6" d="M100-194c63 0 86 42 84 106H49c0 40 14 67 53 68 26 1 43-12 49-29l28 8c-11 28-37 45-77 45C44 4 14-33 15-96c1-61 26-98 85-98zm52 81c6-60-76-77-97-28-3 7-6 17-6 28h103" id="aY"/><path fill="#666" fill-opacity=".6" d="M-5 72V49h209v23H-5" id="aZ"/><path fill="#666" fill-opacity=".6" d="M24-231v-30h32v30H24zM24 0v-190h32V0H24" id="ba"/><path fill="#666" fill-opacity=".6" d="M85-194c31 0 48 13 60 33l-1-100h32l1 261h-30c-2-10 0-23-3-31C134-8 116 4 85 4 32 4 16-35 15-94c0-66 23-100 70-100zm9 24c-40 0-46 34-46 75 0 40 6 74 45 74 42 0 51-32 51-76 0-42-9-74-50-73" id="bb"/><g id="q"><use transform="matrix(0.05,0,0,0.05,0,0)" xlink:href="#aS"/><use transform="matrix(0.05,0,0,0.05,10,0)" xlink:href="#aT"/><use transform="matrix(0.05,0,0,0.05,15,0)" xlink:href="#aT"/><use transform="matrix(0.05,0,0,0.05,20,0)" xlink:href="#aS"/><use transform="matrix(0.05,0,0,0.05,30,0)" xlink:href="#aU"/><use transform="matrix(0.05,0,0,0.05,39,0)" xlink:href="#aV"/><use transform="matrix(0.05,0,0,0.05,49,0)" xlink:href="#aS"/><use transform="matrix(0.05,0,0,0.05,59,0)" xlink:href="#aW"/><use transform="matrix(0.05,0,0,0.05,69,0)" xlink:href="#aX"/><use transform="matrix(0.05,0,0,0.05,72.95,0)" xlink:href="#aY"/><use transform="matrix(0.05,0,0,0.05,82.95,0)" xlink:href="#aZ"/><use transform="matrix(0.05,0,0,0.05,92.95,0)" xlink:href="#ba"/><use transform="matrix(0.05,0,0,0.05,96.9,0)" xlink:href="#bb"/></g><path fill="#666" fill-opacity=".6" d="M179-190L93 31C79 59 56 82 12 73V49c39 6 53-20 64-50L1-190h34L92-34l54-156h33" id="bc"/><path fill="#666" fill-opacity=".6" d="M115-194c55 1 70 41 70 98S169 2 115 4C84 4 66-9 55-30l1 105H24l-1-265h31l2 30c10-21 28-34 59-34zm-8 174c40 0 45-34 45-75s-6-73-45-74c-42 0-51 32-51 76 0 43 10 73 51 73" id="bd"/><g id="r"><use transform="matrix(0.05,0,0,0.05,0,0)" xlink:href="#aS"/><use transform="matrix(0.05,0,0,0.05,10,0)" xlink:href="#aT"/><use transform="matrix(0.05,0,0,0.05,15,0)" xlink:href="#aT"/><use transform="matrix(0.05,0,0,0.05,20,0)" xlink:href="#aS"/><use transform="matrix(0.05,0,0,0.05,30,0)" xlink:href="#aU"/><use transform="matrix(0.05,0,0,0.05,39,0)" xlink:href="#aV"/><use transform="matrix(0.05,0,0,0.05,49,0)" xlink:href="#aS"/><use transform="matrix(0.05,0,0,0.05,59,0)" xlink:href="#aW"/><use transform="matrix(0.05,0,0,0.05,69,0)" xlink:href="#aX"/><use transform="matrix(0.05,0,0,0.05,72.95,0)" xlink:href="#aY"/><use transform="matrix(0.05,0,0,0.05,82.95,0)" xlink:href="#aZ"/><use transform="matrix(0.05,0,0,0.05,92.95,0)" xlink:href="#aT"/><use transform="matrix(0.05,0,0,0.05,97.95,0)" xlink:href="#bc"/><use transform="matrix(0.05,0,0,0.05,106.95,0)" xlink:href="#bd"/><use transform="matrix(0.05,0,0,0.05,116.95,0)" xlink:href="#aY"/></g><filter id="g" filterUnits="objectBoundingBox" x="-.05" y="-.02" width="1.1" height="1.08"><feOffset result="offOut" in="SourceAlpha" dy="6"/><feGaussianBlur result="blurOut" in="offOut" stdDeviation="5"/><feColorMatrix result="colorOut" in="blurOut" values="0 0 0 0 0 0 0 0 0 0 0 0 0 0 0 0 0 0 0.16862745098039217 0"/><feBlend in="SourceGraphic" in2="colorOut"/></filter><path fill="#3d4752" d="M84 4C-5 8 30-112 23-190h32v120c0 31 7 50 39 49 72-2 45-101 50-169h31l1 190h-30c-1-10 1-25-2-33-11 22-28 36-60 37" id="be"/><path fill="#3d4752" d="M59-47c-2 24 18 29 38 22v24C64 9 27 4 27-40v-127H5v-23h24l9-43h21v43h35v23H59v120" id="bf"/><path fill="#3d4752" d="M115-194c55 1 70 41 70 98S169 2 115 4C84 4 66-9 55-30l1 105H24l-1-265h31l2 30c10-21 28-34 59-34zm-8 174c40 0 45-34 45-75s-6-73-45-74c-42 0-51 32-51 76 0 43 10 73 51 73" id="bg"/><g id="t"><use transform="matrix(0.07407407407407408,0,0,0.07407407407407408,0,0)" xlink:href="#an"/><use transform="matrix(0.07407407407407408,0,0,0.07407407407407408,14.814814814814817,0)" xlink:href="#be"/><use transform="matrix(0.07407407407407408,0,0,0.07407407407407408,29.629629629629633,0)" xlink:href="#bf"/><use transform="matrix(0.07407407407407408,0,0,0.07407407407407408,37.03703703703704,0)" xlink:href="#bg"/><use transform="matrix(0.07407407407407408,0,0,0.07407407407407408,51.85185185185186,0)" xlink:href="#be"/><use transform="matrix(0.07407407407407408,0,0,0.07407407407407408,66.66666666666667,0)" xlink:href="#bf"/><use transform="matrix(0.07407407407407408,0,0,0.07407407407407408,74.07407407407408,0)" xlink:href="#aq"/></g><g id="u"><use transform="matrix(0.05,0,0,0.05,0,0)" xlink:href="#az"/><use transform="matrix(0.05,0,0,0.05,5,0)" xlink:href="#au"/><use transform="matrix(0.05,0,0,0.05,15,0)" xlink:href="#aM"/><use transform="matrix(0.05,0,0,0.05,20.95,0)" xlink:href="#aO"/><use transform="matrix(0.05,0,0,0.05,30.950000000000003,0)" xlink:href="#aw"/><use transform="matrix(0.05,0,0,0.05,40.95,0)" xlink:href="#az"/><use transform="matrix(0.05,0,0,0.05,45.95,0)" xlink:href="#aA"/><use transform="matrix(0.05,0,0,0.05,55.95,0)" xlink:href="#aE"/><use transform="matrix(0.05,0,0,0.05,65.95,0)" xlink:href="#ay"/><use transform="matrix(0.05,0,0,0.05,69.9,0)" xlink:href="#aF"/><use transform="matrix(0.05,0,0,0.05,79.9,0)" xlink:href="#ax"/><use transform="matrix(0.05,0,0,0.05,88.9,0)" xlink:href="#aK"/><use transform="matrix(0.05,0,0,0.05,97.9,0)" xlink:href="#aA"/><use transform="matrix(0.05,0,0,0.05,107.9,0)" xlink:href="#ar"/><use transform="matrix(0.05,0,0,0.05,111.85000000000001,0)" xlink:href="#as"/></g><g id="v"><use transform="matrix(0.05,0,0,0.05,0,0)" xlink:href="#aF"/><use transform="matrix(0.05,0,0,0.05,10,0)" xlink:href="#aC"/><use transform="matrix(0.05,0,0,0.05,20,0)" xlink:href="#az"/><use transform="matrix(0.05,0,0,0.05,25,0)" xlink:href="#aB"/><use transform="matrix(0.05,0,0,0.05,35,0)" xlink:href="#aC"/><use transform="matrix(0.05,0,0,0.05,45,0)" xlink:href="#az"/><use transform="matrix(0.05,0,0,0.05,50,0)" xlink:href="#au"/><use transform="matrix(0.05,0,0,0.05,60,0)" xlink:href="#aE"/><use transform="matrix(0.05,0,0,0.05,70,0)" xlink:href="#ay"/><use transform="matrix(0.05,0,0,0.05,73.95,0)" xlink:href="#aw"/><use transform="matrix(0.05,0,0,0.05,83.95,0)" xlink:href="#aA"/><use transform="matrix(0.05,0,0,0.05,93.95,0)" xlink:href="#ar"/><use transform="matrix(0.05,0,0,0.05,97.9,0)" xlink:href="#as"/></g><g id="w"><use transform="matrix(0.05,0,0,0.05,0,0)" xlink:href="#aF"/><use transform="matrix(0.05,0,0,0.05,10,0)" xlink:href="#aC"/><use transform="matrix(0.05,0,0,0.05,20,0)" xlink:href="#az"/><use transform="matrix(0.05,0,0,0.05,25,0)" xlink:href="#aB"/><use transform="matrix(0.05,0,0,0.05,35,0)" xlink:href="#aC"/><use transform="matrix(0.05,0,0,0.05,45,0)" xlink:href="#az"/><use transform="matrix(0.05,0,0,0.05,50,0)" xlink:href="#au"/><use transform="matrix(0.05,0,0,0.05,60,0)" xlink:href="#aE"/><use transform="matrix(0.05,0,0,0.05,70,0)" xlink:href="#ay"/><use transform="matrix(0.05,0,0,0.05,73.95,0)" xlink:href="#aw"/><use transform="matrix(0.05,0,0,0.05,83.95,0)" xlink:href="#aA"/><use transform="matrix(0.05,0,0,0.05,93.95,0)" xlink:href="#az"/><use transform="matrix(0.05,0,0,0.05,98.95,0)" xlink:href="#aD"/><use transform="matrix(0.05,0,0,0.05,107.95,0)" xlink:href="#aB"/><use transform="matrix(0.05,0,0,0.05,117.95,0)" xlink:href="#aw"/></g><filter id="s" filterUnits="objectBoundingBox" x="-.05" y="-.02" width="1.1" height="1.1"><feOffset result="offOut" in="SourceAlpha" dy="6"/><feGaussianBlur result="blurOut" in="offOut" stdDeviation="5"/><feColorMatrix result="colorOut" in="blurOut" values="0 0 0 0 0 0 0 0 0 0 0 0 0 0 0 0 0 0 0.16862745098039217 0"/><feBlend in="SourceGraphic" in2="colorOut"/></filter><path fill="#3d4752" d="M-5 72V49h209v23H-5" id="bh"/><path fill="#3d4752" d="M117-194c89-4 53 116 60 194h-32v-121c0-31-8-49-39-48C34-167 62-67 57 0H25l-1-190h30c1 10-1 24 2 32 11-22 29-35 61-36" id="bi"/><g id="y"><use transform="matrix(0.07407407407407408,0,0,0.07407407407407408,0,0)" xlink:href="#an"/><use transform="matrix(0.07407407407407408,0,0,0.07407407407407408,14.814814814814817,0)" xlink:href="#be"/><use transform="matrix(0.07407407407407408,0,0,0.07407407407407408,29.629629629629633,0)" xlink:href="#bf"/><use transform="matrix(0.07407407407407408,0,0,0.07407407407407408,37.03703703703704,0)" xlink:href="#bg"/><use transform="matrix(0.07407407407407408,0,0,0.07407407407407408,51.85185185185186,0)" xlink:href="#be"/><use transform="matrix(0.07407407407407408,0,0,0.07407407407407408,66.66666666666667,0)" xlink:href="#bf"/><use transform="matrix(0.07407407407407408,0,0,0.07407407407407408,74.07407407407408,0)" xlink:href="#bh"/><use transform="matrix(0.07407407407407408,0,0,0.07407407407407408,88.88888888888889,0)" xlink:href="#al"/><use transform="matrix(0.07407407407407408,0,0,0.07407407407407408,103.7037037037037,0)" xlink:href="#be"/><use transform="matrix(0.07407407407407408,0,0,0.07407407407407408,118.5185185185185,0)" xlink:href="#bf"/><use transform="matrix(0.07407407407407408,0,0,0.07407407407407408,125.92592592592591,0)" xlink:href="#bf"/><use transform="matrix(0.07407407407407408,0,0,0.07407407407407408,133.33333333333331,0)" xlink:href="#an"/><use transform="matrix(0.07407407407407408,0,0,0.07407407407407408,148.14814814814812,0)" xlink:href="#bi"/><use transform="matrix(0.07407407407407408,0,0,0.07407407407407408,162.9629629629629,0)" xlink:href="#aq"/></g><path d="M141 0L90-78 38 0H4l68-98-65-92h35l48 74 47-74h35l-64 92 68 98h-35" id="bj"/><g id="z"><use transform="matrix(0.05,0,0,0.05,0,0)" xlink:href="#az"/><use transform="matrix(0.05,0,0,0.05,5,0)" xlink:href="#aw"/><use transform="matrix(0.05,0,0,0.05,15,0)" xlink:href="#bj"/><use transform="matrix(0.05,0,0,0.05,24,0)" xlink:href="#az"/></g><g id="A"><use transform="matrix(0.05,0,0,0.05,0,0)" xlink:href="#aw"/><use transform="matrix(0.05,0,0,0.05,10,0)" xlink:href="#bj"/><use transform="matrix(0.05,0,0,0.05,19,0)" xlink:href="#az"/><use transform="matrix(0.05,0,0,0.05,24,0)" xlink:href="#aw"/><use transform="matrix(0.05,0,0,0.05,34,0)" xlink:href="#aM"/><use transform="matrix(0.05,0,0,0.05,39.95,0)" xlink:href="#at"/><use transform="matrix(0.05,0,0,0.05,49.95,0)" xlink:href="#au"/><use transform="matrix(0.05,0,0,0.05,59.95,0)" xlink:href="#ay"/><use transform="matrix(0.05,0,0,0.05,63.900000000000006,0)" xlink:href="#aA"/><use transform="matrix(0.05,0,0,0.05,73.9,0)" xlink:href="#ay"/><use transform="matrix(0.05,0,0,0.05,77.85000000000001,0)" xlink:href="#ar"/><use transform="matrix(0.05,0,0,0.05,81.80000000000001,0)" xlink:href="#at"/><use transform="matrix(0.05,0,0,0.05,91.80000000000001,0)" xlink:href="#aK"/></g><filter id="x" filterUnits="objectBoundingBox" x="-.05" y="-.03" width="1.1" height="1.14"><feOffset result="offOut" in="SourceAlpha" dy="6"/><feGaussianBlur result="blurOut" in="offOut" stdDeviation="5"/><feColorMatrix result="colorOut" in="blurOut" values="0 0 0 0 0 0 0 0 0 0 0 0 0 0 0 0 0 0 0.16862745098039217 0"/><feBlend in="SourceGraphic" in2="colorOut"/></filter><path fill="#666" fill-opacity=".6" d="M100-194c62-1 85 37 85 99 1 63-27 99-86 99S16-35 15-95c0-66 28-99 85-99zM99-20c44 1 53-31 53-75 0-43-8-75-51-75s-53 32-53 75 10 74 51 75" id="bk"/><path fill="#666" fill-opacity=".6" d="M84 4C-5 8 30-112 23-190h32v120c0 31 7 50 39 49 72-2 45-101 50-169h31l1 190h-30c-1-10 1-25-2-33-11 22-28 36-60 37" id="bl"/><path fill="#666" fill-opacity=".6" d="M101-234c-31-9-42 10-38 44h38v23H63V0H32v-167H5v-23h27c-7-52 17-82 69-68v24" id="bm"/><path fill="#666" fill-opacity=".6" d="M114-163C36-179 61-72 57 0H25l-1-190h30c1 12-1 29 2 39 6-27 23-49 58-41v29" id="bn"/><path fill="#666" fill-opacity=".6" d="M135-143c-3-34-86-38-87 0 15 53 115 12 119 90S17 21 10-45l28-5c4 36 97 45 98 0-10-56-113-15-118-90-4-57 82-63 122-42 12 7 21 19 24 35" id="bo"/><g id="C"><use transform="matrix(0.07407407407407408,0,0,0.07407407407407408,0,0)" xlink:href="#bk"/><use transform="matrix(0.07407407407407408,0,0,0.07407407407407408,14.814814814814817,0)" xlink:href="#bl"/><use transform="matrix(0.07407407407407408,0,0,0.07407407407407408,29.629629629629633,0)" xlink:href="#aT"/><use transform="matrix(0.07407407407407408,0,0,0.07407407407407408,37.03703703703704,0)" xlink:href="#bd"/><use transform="matrix(0.07407407407407408,0,0,0.07407407407407408,51.85185185185186,0)" xlink:href="#bl"/><use transform="matrix(0.07407407407407408,0,0,0.07407407407407408,66.66666666666667,0)" xlink:href="#aT"/><use transform="matrix(0.07407407407407408,0,0,0.07407407407407408,74.07407407407408,0)" xlink:href="#aZ"/><use transform="matrix(0.07407407407407408,0,0,0.07407407407407408,88.88888888888889,0)" xlink:href="#bm"/><use transform="matrix(0.07407407407407408,0,0,0.07407407407407408,96.29629629629629,0)" xlink:href="#ba"/><use transform="matrix(0.07407407407407408,0,0,0.07407407407407408,102.14814814814814,0)" xlink:href="#aX"/><use transform="matrix(0.07407407407407408,0,0,0.07407407407407408,107.99999999999999,0)" xlink:href="#aT"/><use transform="matrix(0.07407407407407408,0,0,0.07407407407407408,115.40740740740739,0)" xlink:href="#aY"/><use transform="matrix(0.07407407407407408,0,0,0.07407407407407408,130.2222222222222,0)" xlink:href="#bn"/><use transform="matrix(0.07407407407407408,0,0,0.07407407407407408,139.037037037037,0)" xlink:href="#bo"/></g><g id="D"><use transform="matrix(0.05,0,0,0.05,0,0)" xlink:href="#ba"/><use transform="matrix(0.05,0,0,0.05,3.95,0)" xlink:href="#bb"/></g><path fill="#666" fill-opacity=".6" d="M210-169c-67 3-38 105-44 169h-31v-121c0-29-5-50-35-48C34-165 62-65 56 0H25l-1-190h30c1 10-1 24 2 32 10-44 99-50 107 0 11-21 27-35 58-36 85-2 47 119 55 194h-31v-121c0-29-5-49-35-48" id="bp"/><path fill="#666" fill-opacity=".6" d="M143 0L79-87 56-68V0H24v-261h32v163l83-92h37l-77 82L181 0h-38" id="bq"/><g id="E"><use transform="matrix(0.05,0,0,0.05,0,0)" xlink:href="#bp"/><use transform="matrix(0.05,0,0,0.05,14.950000000000001,0)" xlink:href="#aS"/><use transform="matrix(0.05,0,0,0.05,24.950000000000003,0)" xlink:href="#bo"/><use transform="matrix(0.05,0,0,0.05,33.95,0)" xlink:href="#bq"/></g><filter id="B" filterUnits="objectBoundingBox" x="-.05" y="-.04" width="1.1" height="1.19"><feOffset result="offOut" in="SourceAlpha" dy="6"/><feGaussianBlur result="blurOut" in="offOut" stdDeviation="5"/><feColorMatrix result="colorOut" in="blurOut" values="0 0 0 0 0 0 0 0 0 0 0 0 0 0 0 0 0 0 0.16862745098039217 0"/><feBlend in="SourceGraphic" in2="colorOut"/></filter><path fill="#3d4752" d="M114-163C36-179 61-72 57 0H25l-1-190h30c1 12-1 29 2 39 6-27 23-49 58-41v29" id="br"/><g id="F"><use transform="matrix(0.07407407407407408,0,0,0.07407407407407408,0,0)" xlink:href="#be"/><use transform="matrix(0.07407407407407408,0,0,0.07407407407407408,14.814814814814817,0)" xlink:href="#aq"/><use transform="matrix(0.07407407407407408,0,0,0.07407407407407408,28.148148148148152,0)" xlink:href="#aH"/><use transform="matrix(0.07407407407407408,0,0,0.07407407407407408,42.96296296296297,0)" xlink:href="#br"/><use transform="matrix(0.07407407407407408,0,0,0.07407407407407408,51.777777777777786,0)" xlink:href="#aq"/></g><g id="G"><use transform="matrix(0.05,0,0,0.05,0,0)" xlink:href="#aw"/><use transform="matrix(0.05,0,0,0.05,10,0)" xlink:href="#av"/><use transform="matrix(0.05,0,0,0.05,24.950000000000003,0)" xlink:href="#au"/><use transform="matrix(0.05,0,0,0.05,34.95,0)" xlink:href="#ar"/><use transform="matrix(0.05,0,0,0.05,38.900000000000006,0)" xlink:href="#ay"/></g><g id="H"><use transform="matrix(0.07407407407407408,0,0,0.07407407407407408,0,0)" xlink:href="#al"/><use transform="matrix(0.07407407407407408,0,0,0.07407407407407408,14.814814814814817,0)" xlink:href="#an"/><use transform="matrix(0.07407407407407408,0,0,0.07407407407407408,29.629629629629633,0)" xlink:href="#bf"/><use transform="matrix(0.07407407407407408,0,0,0.07407407407407408,37.03703703703704,0)" xlink:href="#aq"/></g><g id="I"><use transform="matrix(0.05,0,0,0.05,0,0)" xlink:href="#aC"/><use transform="matrix(0.05,0,0,0.05,10,0)" xlink:href="#aL"/><use transform="matrix(0.05,0,0,0.05,19,0)" xlink:href="#aw"/><use transform="matrix(0.05,0,0,0.05,29,0)" xlink:href="#aM"/><use transform="matrix(0.05,0,0,0.05,34.95,0)" xlink:href="#aA"/><use transform="matrix(0.05,0,0,0.05,44.95,0)" xlink:href="#ar"/><use transform="matrix(0.05,0,0,0.05,48.900000000000006,0)" xlink:href="#as"/></g><path fill="#666" fill-opacity=".6" d="M177-190C167-65 218 103 67 71c-23-6-38-20-44-43l32-5c15 47 100 32 89-28v-30C133-14 115 1 83 1 29 1 15-40 15-95c0-56 16-97 71-98 29-1 48 16 59 35 1-10 0-23 2-32h30zM94-22c36 0 50-32 50-73 0-42-14-75-50-75-39 0-46 34-46 75s6 73 46 73" id="bs"/><g id="J"><use transform="matrix(0.07407407407407408,0,0,0.07407407407407408,0,0)" xlink:href="#ba"/><use transform="matrix(0.07407407407407408,0,0,0.07407407407407408,5.851851851851853,0)" xlink:href="#bp"/><use transform="matrix(0.07407407407407408,0,0,0.07407407407407408,28.000000000000007,0)" xlink:href="#aS"/><use transform="matrix(0.07407407407407408,0,0,0.07407407407407408,42.814814814814824,0)" xlink:href="#bs"/><use transform="matrix(0.07407407407407408,0,0,0.07407407407407408,57.62962962962964,0)" xlink:href="#aY"/><use transform="matrix(0.07407407407407408,0,0,0.07407407407407408,72.44444444444446,0)" xlink:href="#bo"/></g><g id="K"><use transform="matrix(0.05,0,0,0.05,0,0)" xlink:href="#bd"/><use transform="matrix(0.05,0,0,0.05,10,0)" xlink:href="#aS"/><use transform="matrix(0.05,0,0,0.05,20,0)" xlink:href="#aT"/><use transform="matrix(0.05,0,0,0.05,25,0)" xlink:href="#aV"/></g><g id="L"><use transform="matrix(0.05,0,0,0.05,0,0)" xlink:href="#aS"/><use transform="matrix(0.05,0,0,0.05,10,0)" xlink:href="#aX"/><use transform="matrix(0.05,0,0,0.05,13.949999999999998,0)" xlink:href="#aT"/></g><path fill="#666" fill-opacity=".6" d="M108 0H70L1-190h34L89-25l56-165h34" id="bt"/><g id="M"><use transform="matrix(0.07407407407407408,0,0,0.07407407407407408,0,0)" xlink:href="#bt"/><use transform="matrix(0.07407407407407408,0,0,0.07407407407407408,13.333333333333336,0)" xlink:href="#ba"/><use transform="matrix(0.07407407407407408,0,0,0.07407407407407408,19.18518518518519,0)" xlink:href="#bb"/><use transform="matrix(0.07407407407407408,0,0,0.07407407407407408,34.00000000000001,0)" xlink:href="#aY"/><use transform="matrix(0.07407407407407408,0,0,0.07407407407407408,48.814814814814824,0)" xlink:href="#bk"/><use transform="matrix(0.07407407407407408,0,0,0.07407407407407408,63.62962962962964,0)" xlink:href="#bo"/></g><g id="N"><use transform="matrix(0.05,0,0,0.05,0,0)" xlink:href="#bl"/><use transform="matrix(0.05,0,0,0.05,10,0)" xlink:href="#bn"/><use transform="matrix(0.05,0,0,0.05,15.949999999999998,0)" xlink:href="#aX"/></g><path fill="#666" fill-opacity=".6" d="M117-194c89-4 53 116 60 194h-32v-121c0-31-8-49-39-48C34-167 62-67 57 0H25l-1-190h30c1 10-1 24 2 32 11-22 29-35 61-36" id="bu"/><g id="O"><use transform="matrix(0.05,0,0,0.05,0,0)" xlink:href="#bu"/><use transform="matrix(0.05,0,0,0.05,10,0)" xlink:href="#aS"/><use transform="matrix(0.05,0,0,0.05,20,0)" xlink:href="#bp"/><use transform="matrix(0.05,0,0,0.05,34.95,0)" xlink:href="#aY"/></g><path fill="#3d4752" d="M24-231v-30h32v30H24zM24 0v-190h32V0H24" id="bv"/><g id="Q"><use transform="matrix(0.07407407407407408,0,0,0.07407407407407408,0,0)" xlink:href="#ao"/><use transform="matrix(0.07407407407407408,0,0,0.07407407407407408,13.333333333333336,0)" xlink:href="#am"/><use transform="matrix(0.07407407407407408,0,0,0.07407407407407408,19.18518518518519,0)" xlink:href="#bv"/><use transform="matrix(0.07407407407407408,0,0,0.07407407407407408,25.037037037037045,0)" xlink:href="#aH"/><use transform="matrix(0.07407407407407408,0,0,0.07407407407407408,39.85185185185187,0)" xlink:href="#bi"/><use transform="matrix(0.07407407407407408,0,0,0.07407407407407408,54.666666666666686,0)" xlink:href="#bf"/><use transform="matrix(0.07407407407407408,0,0,0.07407407407407408,62.07407407407409,0)" xlink:href="#aq"/></g><g id="R"><use transform="matrix(0.05,0,0,0.05,0,0)" xlink:href="#ar"/><use transform="matrix(0.05,0,0,0.05,3.95,0)" xlink:href="#aB"/></g><g id="S"><use transform="matrix(0.05,0,0,0.05,0,0)" xlink:href="#aC"/><use transform="matrix(0.05,0,0,0.05,10,0)" xlink:href="#aL"/><use transform="matrix(0.05,0,0,0.05,19,0)" xlink:href="#aw"/><use transform="matrix(0.05,0,0,0.05,29,0)" xlink:href="#aM"/><use transform="matrix(0.05,0,0,0.05,34.95,0)" xlink:href="#aA"/><use transform="matrix(0.05,0,0,0.05,44.95,0)" xlink:href="#au"/><use transform="matrix(0.05,0,0,0.05,54.95,0)" xlink:href="#aO"/><use transform="matrix(0.05,0,0,0.05,64.95,0)" xlink:href="#aw"/><use transform="matrix(0.05,0,0,0.05,74.95,0)" xlink:href="#at"/><use transform="matrix(0.05,0,0,0.05,84.95,0)" xlink:href="#az"/></g><path d="M106-169C34-169 62-67 57 0H25v-261h32l-1 103c12-21 28-36 61-36 89 0 53 116 60 194h-32v-121c2-32-8-49-39-48" id="bw"/><g id="T"><use transform="matrix(0.05,0,0,0.05,0,0)" xlink:href="#aB"/><use transform="matrix(0.05,0,0,0.05,10,0)" xlink:href="#bw"/><use transform="matrix(0.05,0,0,0.05,20,0)" xlink:href="#aF"/><use transform="matrix(0.05,0,0,0.05,30,0)" xlink:href="#at"/><use transform="matrix(0.05,0,0,0.05,40,0)" xlink:href="#aw"/></g><filter id="P" filterUnits="objectBoundingBox" x="-.05" y="-.02" width="1.1" height="1.09"><feOffset result="offOut" in="SourceAlpha" dy="6"/><feGaussianBlur result="blurOut" in="offOut" stdDeviation="5"/><feColorMatrix result="colorOut" in="blurOut" values="0 0 0 0 0 0 0 0 0 0 0 0 0 0 0 0 0 0 0.16862745098039217 0"/><feBlend in="SourceGraphic" in2="colorOut"/></filter><path fill="#3d4752" d="M108 0H70L1-190h34L89-25l56-165h34" id="bx"/><g id="V"><use transform="matrix(0.07407407407407408,0,0,0.07407407407407408,0,0)" xlink:href="#ao"/><use transform="matrix(0.07407407407407408,0,0,0.07407407407407408,13.333333333333336,0)" xlink:href="#an"/><use transform="matrix(0.07407407407407408,0,0,0.07407407407407408,28.148148148148152,0)" xlink:href="#bi"/><use transform="matrix(0.07407407407407408,0,0,0.07407407407407408,42.96296296296297,0)" xlink:href="#bx"/><use transform="matrix(0.07407407407407408,0,0,0.07407407407407408,56.296296296296305,0)" xlink:href="#aH"/><use transform="matrix(0.07407407407407408,0,0,0.07407407407407408,71.11111111111111,0)" xlink:href="#br"/><use transform="matrix(0.07407407407407408,0,0,0.07407407407407408,79.92592592592592,0)" xlink:href="#aq"/><use transform="matrix(0.07407407407407408,0,0,0.07407407407407408,93.25925925925927,0)" xlink:href="#aI"/><use transform="matrix(0.07407407407407408,0,0,0.07407407407407408,108.07407407407408,0)" xlink:href="#bf"/><use transform="matrix(0.07407407407407408,0,0,0.07407407407407408,115.48148148148148,0)" xlink:href="#bv"/><use transform="matrix(0.07407407407407408,0,0,0.07407407407407408,121.33333333333333,0)" xlink:href="#an"/><use transform="matrix(0.07407407407407408,0,0,0.07407407407407408,136.14814814814815,0)" xlink:href="#bi"/><use transform="matrix(0.07407407407407408,0,0,0.07407407407407408,150.96296296296296,0)" xlink:href="#aq"/></g><g id="W"><use transform="matrix(0.05,0,0,0.05,0,0)" xlink:href="#ax"/><use transform="matrix(0.05,0,0,0.05,9,0)" xlink:href="#ay"/><use transform="matrix(0.05,0,0,0.05,12.949999999999998,0)" xlink:href="#ar"/><use transform="matrix(0.05,0,0,0.05,16.9,0)" xlink:href="#aw"/><use transform="matrix(0.05,0,0,0.05,26.899999999999995,0)" xlink:href="#at"/><use transform="matrix(0.05,0,0,0.05,36.9,0)" xlink:href="#az"/><use transform="matrix(0.05,0,0,0.05,41.9,0)" xlink:href="#aA"/><use transform="matrix(0.05,0,0,0.05,51.900000000000006,0)" xlink:href="#ar"/><use transform="matrix(0.05,0,0,0.05,55.85,0)" xlink:href="#as"/></g><path d="M108 0H70L1-190h34L89-25l56-165h34" id="by"/><g id="X"><use transform="matrix(0.05,0,0,0.05,0,0)" xlink:href="#av"/><use transform="matrix(0.05,0,0,0.05,14.950000000000001,0)" xlink:href="#aw"/><use transform="matrix(0.05,0,0,0.05,24.950000000000003,0)" xlink:href="#aL"/><use transform="matrix(0.05,0,0,0.05,33.95,0)" xlink:href="#aL"/><use transform="matrix(0.05,0,0,0.05,42.95,0)" xlink:href="#au"/><use transform="matrix(0.05,0,0,0.05,52.95,0)" xlink:href="#aO"/><use transform="matrix(0.05,0,0,0.05,62.95,0)" xlink:href="#aw"/><use transform="matrix(0.05,0,0,0.05,72.95,0)" xlink:href="#aA"/><use transform="matrix(0.05,0,0,0.05,82.95,0)" xlink:href="#by"/><use transform="matrix(0.05,0,0,0.05,91.95,0)" xlink:href="#au"/><use transform="matrix(0.05,0,0,0.05,101.95,0)" xlink:href="#ay"/><use transform="matrix(0.05,0,0,0.05,105.9,0)" xlink:href="#aC"/><use transform="matrix(0.05,0,0,0.05,115.9,0)" xlink:href="#aw"/></g><g id="Y"><use transform="matrix(0.05,0,0,0.05,0,0)" xlink:href="#av"/><use transform="matrix(0.05,0,0,0.05,14.950000000000001,0)" xlink:href="#aw"/><use transform="matrix(0.05,0,0,0.05,24.950000000000003,0)" xlink:href="#aL"/><use transform="matrix(0.05,0,0,0.05,33.95,0)" xlink:href="#aL"/><use transform="matrix(0.05,0,0,0.05,42.95,0)" xlink:href="#au"/><use transform="matrix(0.05,0,0,0.05,52.95,0)" xlink:href="#aO"/><use transform="matrix(0.05,0,0,0.05,62.95,0)" xlink:href="#aw"/><use transform="matrix(0.05,0,0,0.05,72.95,0)" xlink:href="#aA"/><use transform="matrix(0.05,0,0,0.05,82.95,0)" xlink:href="#as"/><use transform="matrix(0.05,0,0,0.05,92.95,0)" xlink:href="#ar"/><use transform="matrix(0.05,0,0,0.05,96.9,0)" xlink:href="#aM"/><use transform="matrix(0.05,0,0,0.05,102.85000000000001,0)" xlink:href="#aw"/><use transform="matrix(0.05,0,0,0.05,112.85000000000001,0)" xlink:href="#ax"/><use transform="matrix(0.05,0,0,0.05,121.85000000000001,0)" xlink:href="#az"/><use transform="matrix(0.05,0,0,0.05,126.85000000000001,0)" xlink:href="#ar"/><use transform="matrix(0.05,0,0,0.05,130.8,0)" xlink:href="#aF"/><use transform="matrix(0.05,0,0,0.05,140.8,0)" xlink:href="#at"/></g><g id="Z"><use transform="matrix(0.044444444444444446,0,0,0.044444444444444446,0,0)" xlink:href="#ax"/><use transform="matrix(0.044444444444444446,0,0,0.044444444444444446,8,0)" xlink:href="#ay"/><use transform="matrix(0.044444444444444446,0,0,0.044444444444444446,11.511111111111111,0)" xlink:href="#ar"/><use transform="matrix(0.044444444444444446,0,0,0.044444444444444446,15.022222222222222,0)" xlink:href="#aw"/><use transform="matrix(0.044444444444444446,0,0,0.044444444444444446,23.91111111111111,0)" xlink:href="#at"/><use transform="matrix(0.044444444444444446,0,0,0.044444444444444446,32.8,0)" xlink:href="#az"/><use transform="matrix(0.044444444444444446,0,0,0.044444444444444446,37.24444444444444,0)" xlink:href="#aA"/><use transform="matrix(0.044444444444444446,0,0,0.044444444444444446,46.133333333333326,0)" xlink:href="#ar"/><use transform="matrix(0.044444444444444446,0,0,0.044444444444444446,49.64444444444444,0)" xlink:href="#at"/><use transform="matrix(0.044444444444444446,0,0,0.044444444444444446,58.53333333333334,0)" xlink:href="#aB"/><use transform="matrix(0.044444444444444446,0,0,0.044444444444444446,67.42222222222222,0)" xlink:href="#aC"/><use transform="matrix(0.044444444444444446,0,0,0.044444444444444446,76.3111111111111,0)" xlink:href="#az"/><use transform="matrix(0.044444444444444446,0,0,0.044444444444444446,80.75555555555555,0)" xlink:href="#aA"/><use transform="matrix(0.044444444444444446,0,0,0.044444444444444446,89.64444444444443,0)" xlink:href="#az"/><use transform="matrix(0.044444444444444446,0,0,0.044444444444444446,94.08888888888887,0)" xlink:href="#aD"/><use transform="matrix(0.044444444444444446,0,0,0.044444444444444446,102.08888888888887,0)" xlink:href="#aB"/><use transform="matrix(0.044444444444444446,0,0,0.044444444444444446,110.97777777777776,0)" xlink:href="#aw"/><use transform="matrix(0.044444444444444446,0,0,0.044444444444444446,119.86666666666665,0)" xlink:href="#aA"/><use transform="matrix(0.044444444444444446,0,0,0.044444444444444446,128.75555555555553,0)" xlink:href="#ar"/><use transform="matrix(0.044444444444444446,0,0,0.044444444444444446,132.26666666666665,0)" xlink:href="#as"/></g><path d="M190-63c-7 42-38 67-86 67-59 0-84-38-90-98-12-110 154-137 174-36l-49 2c-2-19-15-32-35-32-30 0-35 28-38 64-6 74 65 87 74 30" id="bz"/><path d="M135-150c-39-12-60 13-60 57V0H25l-1-190h47c2 13-1 29 3 40 6-28 27-53 61-41v41" id="bA"/><path d="M185-48c-13 30-37 53-82 52C43 2 14-33 14-96s30-98 90-98c62 0 83 45 84 108H66c0 31 8 55 39 56 18 0 30-7 34-22zm-45-69c5-46-57-63-70-21-2 6-4 13-4 21h74" id="bB"/><path d="M133-34C117-15 103 5 69 4 32 3 11-16 11-54c-1-60 55-63 116-61 1-26-3-47-28-47-18 1-26 9-28 27l-52-2c7-38 36-58 82-57s74 22 75 68l1 82c-1 14 12 18 25 15v27c-30 8-71 5-69-32zm-48 3c29 0 43-24 42-57-32 0-66-3-65 30 0 17 8 27 23 27" id="bC"/><path d="M115-3C79 11 28 4 28-45v-112H4v-33h27l15-45h31v45h36v33H77v99c-1 23 16 31 38 25v30" id="bD"/><path d="M88-194c31-1 46 15 58 34l-1-101h50l1 261h-48c-2-10 0-23-3-31C134-8 116 4 84 4 32 4 16-41 15-95c0-56 19-97 73-99zm17 164c33 0 40-30 41-66 1-37-9-64-41-64s-38 30-39 65c0 43 13 65 39 65" id="bE"/><path d="M-4 44V30h207v14H-4" id="bF"/><g id="aa"><use transform="matrix(0.05,0,0,0.05,0,0)" xlink:href="#bz"/><use transform="matrix(0.05,0,0,0.05,10,0)" xlink:href="#bA"/><use transform="matrix(0.05,0,0,0.05,17,0)" xlink:href="#bB"/><use transform="matrix(0.05,0,0,0.05,27,0)" xlink:href="#bC"/><use transform="matrix(0.05,0,0,0.05,37,0)" xlink:href="#bD"/><use transform="matrix(0.05,0,0,0.05,42.95,0)" xlink:href="#bB"/><use transform="matrix(0.05,0,0,0.05,52.95,0)" xlink:href="#bE"/><use transform="matrix(0.05,0,0,0.05,63.900000000000006,0)" xlink:href="#bF"/><use transform="matrix(0.05,0,0,0.05,73.9,0)" xlink:href="#bC"/><use transform="matrix(0.05,0,0,0.05,83.9,0)" xlink:href="#bD"/></g><filter id="U" filterUnits="objectBoundingBox" x="-.05" y="-.02" width="1.1" height="1.09"><feOffset result="offOut" in="SourceAlpha" dy="6"/><feGaussianBlur result="blurOut" in="offOut" stdDeviation="5"/><feColorMatrix result="colorOut" in="blurOut" values="0 0 0 0 0 0 0 0 0 0 0 0 0 0 0 0 0 0 0.16862745098039217 0"/><feBlend in="SourceGraphic" in2="colorOut"/></filter><path fill="#c92d39" d="M30 0v-248h33v221h125V0H30" id="bG"/><path fill="#c92d39" d="M100-194c62-1 85 37 85 99 1 63-27 99-86 99S16-35 15-95c0-66 28-99 85-99zM99-20c44 1 53-31 53-75 0-43-8-75-51-75s-53 32-53 75 10 74 51 75" id="bH"/><path fill="#c92d39" d="M177-190C167-65 218 103 67 71c-23-6-38-20-44-43l32-5c15 47 100 32 89-28v-30C133-14 115 1 83 1 29 1 15-40 15-95c0-56 16-97 71-98 29-1 48 16 59 35 1-10 0-23 2-32h30zM94-22c36 0 50-32 50-73 0-42-14-75-50-75-39 0-46 34-46 75s6 73 46 73" id="bI"/><path fill="#c92d39" d="M24-231v-30h32v30H24zM24 0v-190h32V0H24" id="bJ"/><path fill="#c92d39" d="M117-194c89-4 53 116 60 194h-32v-121c0-31-8-49-39-48C34-167 62-67 57 0H25l-1-190h30c1 10-1 24 2 32 11-22 29-35 61-36" id="bK"/><g id="ac"><use transform="matrix(0.07407407407407408,0,0,0.07407407407407408,0,0)" xlink:href="#bG"/><use transform="matrix(0.07407407407407408,0,0,0.07407407407407408,14.814814814814817,0)" xlink:href="#bH"/><use transform="matrix(0.07407407407407408,0,0,0.07407407407407408,29.629629629629633,0)" xlink:href="#bI"/><use transform="matrix(0.07407407407407408,0,0,0.07407407407407408,44.44444444444445,0)" xlink:href="#bI"/><use transform="matrix(0.07407407407407408,0,0,0.07407407407407408,59.25925925925927,0)" xlink:href="#bJ"/><use transform="matrix(0.07407407407407408,0,0,0.07407407407407408,65.11111111111111,0)" xlink:href="#bK"/><use transform="matrix(0.07407407407407408,0,0,0.07407407407407408,79.92592592592592,0)" xlink:href="#bI"/></g><filter id="ab" filterUnits="objectBoundingBox" x="-.04" y="-.05" width="1.08" height="1.26"><feOffset result="offOut" in="SourceAlpha" dy="6"/><feGaussianBlur result="blurOut" in="offOut" stdDeviation="5"/><feColorMatrix result="colorOut" in="blurOut" values="0 0 0 0 0 0 0 0 0 0 0 0 0 0 0 0 0 0 0.16862745098039217 0"/><feBlend in="SourceGraphic" in2="colorOut"/></filter><g id="ae"><use transform="matrix(0.07407407407407408,0,0,0.07407407407407408,0,0)" xlink:href="#ax"/><use transform="matrix(0.07407407407407408,0,0,0.07407407407407408,13.333333333333336,0)" xlink:href="#ay"/><use transform="matrix(0.07407407407407408,0,0,0.07407407407407408,19.18518518518519,0)" xlink:href="#ar"/><use transform="matrix(0.07407407407407408,0,0,0.07407407407407408,25.037037037037045,0)" xlink:href="#aw"/><use transform="matrix(0.07407407407407408,0,0,0.07407407407407408,39.85185185185187,0)" xlink:href="#at"/><use transform="matrix(0.07407407407407408,0,0,0.07407407407407408,54.666666666666686,0)" xlink:href="#az"/><use transform="matrix(0.07407407407407408,0,0,0.07407407407407408,62.07407407407409,0)" xlink:href="#aA"/><use transform="matrix(0.07407407407407408,0,0,0.07407407407407408,76.88888888888891,0)" xlink:href="#ar"/><use transform="matrix(0.07407407407407408,0,0,0.07407407407407408,82.74074074074076,0)" xlink:href="#at"/><use transform="matrix(0.07407407407407408,0,0,0.07407407407407408,97.55555555555557,0)" xlink:href="#aB"/><use transform="matrix(0.07407407407407408,0,0,0.07407407407407408,112.37037037037038,0)" xlink:href="#aC"/><use transform="matrix(0.07407407407407408,0,0,0.07407407407407408,127.18518518518519,0)" xlink:href="#az"/><use transform="matrix(0.07407407407407408,0,0,0.07407407407407408,134.5925925925926,0)" xlink:href="#aA"/><use transform="matrix(0.07407407407407408,0,0,0.07407407407407408,149.40740740740742,0)" xlink:href="#az"/><use transform="matrix(0.07407407407407408,0,0,0.07407407407407408,156.81481481481484,0)" xlink:href="#aD"/><use transform="matrix(0.07407407407407408,0,0,0.07407407407407408,170.14814814814818,0)" xlink:href="#aB"/><use transform="matrix(0.07407407407407408,0,0,0.07407407407407408,184.962962962963,0)" xlink:href="#aw"/><use transform="matrix(0.07407407407407408,0,0,0.07407407407407408,199.7777777777778,0)" xlink:href="#aL"/></g><g id="af"><use transform="matrix(0.05,0,0,0.05,0,0)" xlink:href="#ar"/><use transform="matrix(0.05,0,0,0.05,3.95,0)" xlink:href="#as"/></g><g id="ag"><use transform="matrix(0.05,0,0,0.05,0,0)" xlink:href="#at"/><use transform="matrix(0.05,0,0,0.05,10,0)" xlink:href="#au"/><use transform="matrix(0.05,0,0,0.05,20,0)" xlink:href="#av"/><use transform="matrix(0.05,0,0,0.05,34.95,0)" xlink:href="#aw"/></g><filter id="ad" filterUnits="objectBoundingBox" x="-.04" y="-.04" width="1.08" height="1.19"><feOffset result="offOut" in="SourceAlpha" dy="6"/><feGaussianBlur result="blurOut" in="offOut" stdDeviation="5"/><feColorMatrix result="colorOut" in="blurOut" values="0 0 0 0 0 0 0 0 0 0 0 0 0 0 0 0 0 0 0.16862745098039217 0"/><feBlend in="SourceGraphic" in2="colorOut"/></filter><path d="M127-220V0H93v-220H8v-28h204v28h-85" id="bL"/><g id="ah"><use transform="matrix(0.07407407407407408,0,0,0.07407407407407408,0,0)" xlink:href="#bL"/><use transform="matrix(0.07407407407407408,0,0,0.07407407407407408,13.259259259259261,0)" xlink:href="#aF"/><use transform="matrix(0.07407407407407408,0,0,0.07407407407407408,28.074074074074076,0)" xlink:href="#aB"/></g><g id="ai"><use transform="matrix(0.07407407407407408,0,0,0.07407407407407408,0,0)" xlink:href="#ay"/><use transform="matrix(0.07407407407407408,0,0,0.07407407407407408,5.851851851851853,0)" xlink:href="#aw"/><use transform="matrix(0.07407407407407408,0,0,0.07407407407407408,20.666666666666668,0)" xlink:href="#by"/><use transform="matrix(0.07407407407407408,0,0,0.07407407407407408,34.00000000000001,0)" xlink:href="#aw"/><use transform="matrix(0.07407407407407408,0,0,0.07407407407407408,48.814814814814824,0)" xlink:href="#ay"/></g><path fill="#7ab648" d="M160-131c35 5 61 23 61 61C221 17 115-2 30 0v-248c76 3 177-17 177 60 0 33-19 50-47 57zm-97-11c50-1 110 9 110-42 0-47-63-36-110-37v79zm0 115c55-2 124 14 124-45 0-56-70-42-124-44v89" id="bM"/><path fill="#7ab648" d="M141-36C126-15 110 5 73 4 37 3 15-17 15-53c-1-64 63-63 125-63 3-35-9-54-41-54-24 1-41 7-42 31l-33-3c5-37 33-52 76-52 45 0 72 20 72 64v82c-1 20 7 32 28 27v20c-31 9-61-2-59-35zM48-53c0 20 12 33 32 33 41-3 63-29 60-74-43 2-92-5-92 41" id="bN"/><path fill="#7ab648" d="M135-143c-3-34-86-38-87 0 15 53 115 12 119 90S17 21 10-45l28-5c4 36 97 45 98 0-10-56-113-15-118-90-4-57 82-63 122-42 12 7 21 19 24 35" id="bO"/><path fill="#7ab648" d="M100-194c63 0 86 42 84 106H49c0 40 14 67 53 68 26 1 43-12 49-29l28 8c-11 28-37 45-77 45C44 4 14-33 15-96c1-61 26-98 85-98zm52 81c6-60-76-77-97-28-3 7-6 17-6 28h103" id="bP"/><g id="aj"><use transform="matrix(0.07407407407407408,0,0,0.07407407407407408,0,0)" xlink:href="#bM"/><use transform="matrix(0.07407407407407408,0,0,0.07407407407407408,17.77777777777778,0)" xlink:href="#bN"/><use transform="matrix(0.07407407407407408,0,0,0.07407407407407408,32.592592592592595,0)" xlink:href="#bO"/><use transform="matrix(0.07407407407407408,0,0,0.07407407407407408,45.92592592592593,0)" xlink:href="#bP"/></g><path fill="#7ab648" d="M24 0v-261h32V0H24" id="bQ"/><path fill="#7ab648" d="M100-194c62-1 85 37 85 99 1 63-27 99-86 99S16-35 15-95c0-66 28-99 85-99zM99-20c44 1 53-31 53-75 0-43-8-75-51-75s-53 32-53 75 10 74 51 75" id="bR"/><path fill="#7ab648" d="M177-190C167-65 218 103 67 71c-23-6-38-20-44-43l32-5c15 47 100 32 89-28v-30C133-14 115 1 83 1 29 1 15-40 15-95c0-56 16-97 71-98 29-1 48 16 59 35 1-10 0-23 2-32h30zM94-22c36 0 50-32 50-73 0-42-14-75-50-75-39 0-46 34-46 75s6 73 46 73" id="bS"/><path fill="#7ab648" d="M24-231v-30h32v30H24zM24 0v-190h32V0H24" id="bT"/><path fill="#7ab648" d="M96-169c-40 0-48 33-48 73s9 75 48 75c24 0 41-14 43-38l32 2c-6 37-31 61-74 61-59 0-76-41-82-99-10-93 101-131 147-64 4 7 5 14 7 22l-32 3c-4-21-16-35-41-35" id="bU"/><g id="ak"><use transform="matrix(0.07407407407407408,0,0,0.07407407407407408,0,0)" xlink:href="#bQ"/><use transform="matrix(0.07407407407407408,0,0,0.07407407407407408,5.851851851851853,0)" xlink:href="#bR"/><use transform="matrix(0.07407407407407408,0,0,0.07407407407407408,20.666666666666668,0)" xlink:href="#bS"/><use transform="matrix(0.07407407407407408,0,0,0.07407407407407408,35.48148148148149,0)" xlink:href="#bT"/><use transform="matrix(0.07407407407407408,0,0,0.07407407407407408,41.333333333333336,0)" xlink:href="#bU"/></g></defs></g></svg>